<svg xmlns="http://www.w3.org/2000/svg" viewBox="0 0 145 30" width="100%" height="100%">
  <defs>
    <linearGradient id="lembremed-grad" x1="0%" y1="0%" x2="100%" y2="0%">
      <stop offset="0%" stop-color="#004fd4" />
      <stop offset="100%" stop-color="#00c3ff" />
    </linearGradient>
  </defs>
  <g fill="none" stroke="url(#lembremed-grad)" stroke-width="3.2" stroke-linecap="round" stroke-linejoin="round">
    <!-- l -->
    <path d="M 8 6 L 8 24" />
    
    <!-- e -->
    <path d="M 24 18 L 14 18 C 14 12, 24 12, 24 18 C 24 23.5, 15.5 23.5, 14.5 20.5" />
    
    <!-- m -->
    <path d="M 30 13 L 30 24 M 30 16.5 C 31 12.5, 36.5 12.5, 37 16.5 L 37 24 M 37 16.5 C 38 12.5, 43.5 12.5, 44 16.5 L 44 24" />
    
    <!-- b -->
    <path d="M 50 6 L 50 24 M 50 16.5 C 50 12.5, 58 12.5, 58 18 C 58 23.5, 50 23.5, 50 19.5" />
    
    <!-- r -->
    <path d="M 64 13 L 64 24 M 64 16.5 C 65 13, 69.5 12.5, 71.5 14" />
    
    <!-- e -->
    <path d="M 87 18 L 77 18 C 77 12, 87 12, 87 18 C 87 23.5, 78.5 23.5, 77.5 20.5" />
    
    <!-- m -->
    <path d="M 93 13 L 93 24 M 93 16.5 C 94 12.5, 99.5 12.5, 100 16.5 L 100 24 M 100 16.5 C 101 12.5, 106.5 12.5, 107 16.5 L 107 24" />
    
    <!-- e -->
    <path d="M 123 18 L 113 18 C 113 12, 123 12, 123 18 C 123 23.5, 114.5 23.5, 113.5 20.5" />
    
    <!-- d -->
    <path d="M 137 19.5 C 137 23.5, 129 23.5, 129 18 C 129 12.5, 137 12.5, 137 16.5 M 137 6 L 137 24" />
  </g>
</svg>
